<svg width="57" height="57" viewBox="0 0 57 57" fill="none" xmlns="http://www.w3.org/2000/svg">
<circle cx="28.2237" cy="28.3243" r="27.9483" fill="#FF9257"/>
<path d="M26.6178 14.0633C27.1163 12.7673 27.3655 12.1193 27.7253 11.9313C28.0371 11.7684 28.409 11.7684 28.7208 11.9313C29.0806 12.1193 29.3299 12.7673 29.8283 14.0633L31.9319 19.5326C32.4518 20.8843 32.7117 21.5601 33.1159 22.1285C33.4741 22.6324 33.9143 23.0726 34.4182 23.4308C34.9866 23.835 35.6624 24.0949 37.0141 24.6148L42.4834 26.7184C43.7794 27.2169 44.4274 27.4661 44.6154 27.8259C44.7783 28.1377 44.7783 28.5096 44.6154 28.8214C44.4274 29.1812 43.7794 29.4304 42.4834 29.9289L37.0141 32.0325C35.6624 32.5523 34.9866 32.8123 34.4182 33.2165C33.9143 33.5747 33.4741 34.0149 33.1159 34.5187C32.7117 35.0872 32.4518 35.763 31.9319 37.1147L29.8283 42.584C29.3299 43.88 29.0806 44.528 28.7208 44.716C28.409 44.8789 28.0371 44.8789 27.7253 44.716C27.3655 44.528 27.1163 43.88 26.6178 42.584L24.5142 37.1147C23.9944 35.763 23.7344 35.0872 23.3302 34.5187C22.972 34.0149 22.5318 33.5747 22.028 33.2165C21.4595 32.8123 20.7837 32.5523 19.432 32.0325L13.9627 29.9289C12.6667 29.4304 12.0187 29.1812 11.8307 28.8214C11.6678 28.5096 11.6678 28.1377 11.8307 27.8259C12.0187 27.4661 12.6667 27.2169 13.9627 26.7184L19.432 24.6148C20.7837 24.0949 21.4595 23.835 22.028 23.4308C22.5318 23.0726 22.972 22.6324 23.3302 22.1285C23.7344 21.5601 23.9944 20.8843 24.5142 19.5326L26.6178 14.0633Z" fill="white"/>
</svg>
