<svg width="215" height="80" viewBox="0 0 215 80" fill="none" xmlns="http://www.w3.org/2000/svg">
<path d="M6.66669 26.6667V65.0967C6.66669 65.0967 22.07 64.5234 40 73.3334C57.93 64.5234 73.3334 65.0967 73.3334 65.0967V26.6667C73.3334 26.6667 55.1534 26.6667 40 34.9034C24.8467 26.6667 6.66669 26.6667 6.66669 26.6667Z" fill="#2F584E"/>
<path d="M40 26.6667C45.5228 26.6667 50 22.1895 50 16.6667C50 11.1438 45.5228 6.66669 40 6.66669C34.4772 6.66669 30 11.1438 30 16.6667C30 22.1895 34.4772 26.6667 40 26.6667Z" fill="#FF9257"/>
<path d="M37.8947 44.1737C38.3932 42.8777 38.6424 42.2297 39.0022 42.0417C39.3141 41.8788 39.6859 41.8788 39.9978 42.0417C40.3576 42.2297 40.6068 42.8777 41.1053 44.1737L41.8137 46.0157C42.1381 46.859 42.3002 47.2806 42.5524 47.6352C42.7759 47.9495 43.0505 48.2241 43.3648 48.4476C43.7194 48.6998 44.141 48.8619 44.9843 49.1863L46.8263 49.8947C48.1223 50.3932 48.7703 50.6424 48.9583 51.0022C49.1212 51.3141 49.1212 51.6859 48.9583 51.9978C48.7703 52.3576 48.1223 52.6068 46.8263 53.1053L44.9843 53.8137C44.141 54.1381 43.7194 54.3002 43.3648 54.5524C43.0505 54.7759 42.7759 55.0505 42.5524 55.3648C42.3002 55.7194 42.1381 56.141 41.8138 56.9843L41.1053 58.8263C40.6068 60.1223 40.3576 60.7703 39.9978 60.9583C39.6859 61.1212 39.3141 61.1212 39.0022 60.9583C38.6424 60.7703 38.3932 60.1223 37.8947 58.8263L37.1863 56.9843C36.8619 56.141 36.6998 55.7194 36.4476 55.3648C36.2241 55.0505 35.9495 54.7759 35.6352 54.5524C35.2806 54.3002 34.859 54.1381 34.0157 53.8138L32.1737 53.1053C30.8777 52.6068 30.2297 52.3576 30.0417 51.9978C29.8788 51.6859 29.8788 51.3141 30.0417 51.0022C30.2297 50.6424 30.8777 50.3932 32.1737 49.8947L34.0157 49.1863C34.859 48.8619 35.2806 48.6998 35.6352 48.4476C35.9495 48.2241 36.2241 47.9495 36.4476 47.6352C36.6998 47.2806 36.8619 46.859 37.1862 46.0157L37.8947 44.1737Z" fill="white"/>
<path d="M103.429 56.28C97.6889 56.28 94.1609 52.472 94.1609 46.62C94.1609 40.768 98.1369 36.96 104.577 36.96C110.457 36.96 114.181 39.704 114.181 44.212V44.436H109.505V44.212C109.505 42.028 108.077 40.992 104.465 40.992C100.209 40.992 98.6129 42.448 98.6129 46.62C98.6129 50.792 100.153 52.248 104.269 52.248C108.581 52.248 109.897 51.576 110.009 49.196H103.653V46.088H114.209V56H110.317V51.968H110.093C109.449 54.432 107.489 56.28 103.429 56.28ZM120.465 56H116.265V37.24H132.141V41.02H120.465V45.248H131.721V49H120.465V56ZM138.157 56H132.669L139.977 46.732V46.424L132.669 37.24H138.157L143.421 43.932H143.729L148.797 37.24H154.285L147.005 46.508V46.816L154.285 56H148.797L143.561 49.224H143.253L138.157 56ZM170.657 56H166.457V52.416H154.557V49.56L165.785 37.24H170.657V48.636H173.513V52.416H170.657V56ZM160.409 48.636H166.457V42.084H166.149L160.409 48.328V48.636ZM179.226 56H175.026V37.24H179.226V56ZM185.625 40.544H181.425V37.24H185.625V40.544ZM185.625 56H181.425V41.972H185.625V56ZM193.143 56H188.943V45.444H186.955V41.972H189.027C189.475 39.144 191.939 37.24 196.251 37.24H197.483V40.292H195.579C193.731 40.292 192.863 40.6 192.975 41.972H197.483V45.444H193.143V56ZM206.318 56.28C201.642 56.28 198.45 53.984 198.45 49C198.45 44.52 201.614 41.692 206.234 41.692C210.826 41.692 213.878 44.1 213.878 48.496C213.878 49 213.822 49.364 213.766 49.84H202.342C202.454 51.996 203.462 52.92 206.178 52.92C208.67 52.92 209.538 52.276 209.538 51.072V50.792H213.738V51.1C213.738 54.152 210.77 56.28 206.318 56.28ZM206.15 44.968C203.658 44.968 202.594 45.808 202.398 47.628H209.846C209.734 45.78 208.614 44.968 206.15 44.968Z" fill="#1A1A1A"/>
</svg>
